<?xml version="1.0" encoding="utf-8"?>
<!-- Generator: Adobe Illustrator 19.2.1, SVG Export Plug-In . SVG Version: 6.00 Build 0)  -->
<svg version="1.0" id="Headset" xmlns="http://www.w3.org/2000/svg" xmlns:xlink="http://www.w3.org/1999/xlink" x="0px" y="0px"
	 viewBox="0 0 52 52" enable-background="new 0 0 52 52" xml:space="preserve" fill="#62B5E5">
<path d="M16,25c0-0.6,0.4-1,1-1s1,0.4,1,1v6c0,0.6-0.4,1-1,1s-1-0.4-1-1v-5V25z M35,24c-0.6,0-1,0.4-1,1v6c0,0.6,0.4,1,1,1
	s1-0.4,1-1v-6C36,24.4,35.6,24,35,24z M50,26c0,13.3-10.7,24-24,24S2,39.3,2,26S12.7,2,26,2S50,12.7,50,26z M38,23
	c0-6.6-5.4-12-12-12s-12,5.4-12,12v8c0,1.7,1.3,3,3,3s3-1.3,3-3v-6c0-1.7-1.3-3-3-3c-0.3,0-0.7,0.1-1,0.2C16.5,17,20.8,13,26,13
	s9.5,4,10,9.2c-0.3-0.1-0.6-0.2-1-0.2c-1.7,0-3,1.3-3,3v6c0,1.7,1.3,3,3,3c0.3,0,0.5,0,0.8-0.1c-0.8,3.1-3.6,4.4-6.6,4.9
	C29,37.7,27.7,37,26,37c-1.9,0-3.2,0.8-3.2,2s1.3,2,3.2,2c7.7,0,12-3.2,12-9V23z"/>
</svg>
